# xmcd
#
# Track frame offsets:
#	150
#	31553
#	50300
#	63818
#	74709
#	87904
#	99342
#	122884
#	138378
#	152416
#	165642
#	195107
#	205092
#	228735
#
# Disc length: 3263 seconds
#
# Revision: 4103762237
# Processed by: cddbd v1.5.2PL0 Copyright (c) Steve Scherf et al.
# Submitted via: EZCDAudioConverter 8.5.0.1
#
DISCID=af0cbd0e
DTITLE=The Velvet Underground - The Velvet Underground: 45th Anniversary 4/6
DYEAR=2014
DGENRE=
TTITLE0=Foggy Notion [Original 1969 Mix]
TTITLE1=One Of These Days [2014 Mix]
TTITLE2=Lisa Says [2014 Mix]
TTITLE3=I'm Sticking With You [Original 1969 Mix]
TTITLE4=Andy's Chest [Original 1969 Mix]
TTITLE5=Coney Island Steeplechase [2014 Mix]
TTITLE6=Ocean [Original 1969 Mix]
TTITLE7=I Can't Stand It [2014 Mix]
TTITLE8=She's My Best Friend [Original 1969 Mix]
TTITLE9=We're Gonna Have A Real Good Time Together [2014 Mix]
TTITLE10=I'm Gonna Move Right In [Original 1969 Mix]
TTITLE11=Ferryboat Bill [Original 1969 Mix]
TTITLE12=Rock and Roll [Original 1969 Mix]
TTITLE13=Ride Into The Sun [2014 Mix]
EXTD=
EXTT0=
EXTT1=
EXTT2=
EXTT3=
EXTT4=
EXTT5=
EXTT6=
EXTT7=
EXTT8=
EXTT9=
EXTT10=
EXTT11=
EXTT12=
EXTT13=
PLAYORDER=
